<?xml version="1.0" encoding="UTF-8"?>
<svg xmlns="http://www.w3.org/2000/svg" width="1536" height="1024" viewBox="0 0 1536 1024">
  <rect x="0" y="0" width="1536" height="1024" fill="#FFFFFF"/>
  <g stroke="#000000" stroke-opacity="0.06" stroke-width="0.5">
    <line x1="0" y1="0" x2="0" y2="1024"/>
    <line x1="48" y1="0" x2="48" y2="1024"/>
    <line x1="96" y1="0" x2="96" y2="1024"/>
    <line x1="144" y1="0" x2="144" y2="1024"/>
    <line x1="192" y1="0" x2="192" y2="1024"/>
    <line x1="240" y1="0" x2="240" y2="1024"/>
    <line x1="288" y1="0" x2="288" y2="1024"/>
    <line x1="336" y1="0" x2="336" y2="1024"/>
    <line x1="384" y1="0" x2="384" y2="1024"/>
    <line x1="432" y1="0" x2="432" y2="1024"/>
    <line x1="480" y1="0" x2="480" y2="1024"/>
    <line x1="528" y1="0" x2="528" y2="1024"/>
    <line x1="576" y1="0" x2="576" y2="1024"/>
    <line x1="624" y1="0" x2="624" y2="1024"/>
    <line x1="672" y1="0" x2="672" y2="1024"/>
    <line x1="720" y1="0" x2="720" y2="1024"/>
    <line x1="768" y1="0" x2="768" y2="1024"/>
    <line x1="816" y1="0" x2="816" y2="1024"/>
    <line x1="864" y1="0" x2="864" y2="1024"/>
    <line x1="912" y1="0" x2="912" y2="1024"/>
    <line x1="960" y1="0" x2="960" y2="1024"/>
    <line x1="1008" y1="0" x2="1008" y2="1024"/>
    <line x1="1056" y1="0" x2="1056" y2="1024"/>
    <line x1="1104" y1="0" x2="1104" y2="1024"/>
    <line x1="1152" y1="0" x2="1152" y2="1024"/>
    <line x1="1200" y1="0" x2="1200" y2="1024"/>
    <line x1="1248" y1="0" x2="1248" y2="1024"/>
    <line x1="1296" y1="0" x2="1296" y2="1024"/>
    <line x1="1344" y1="0" x2="1344" y2="1024"/>
    <line x1="1392" y1="0" x2="1392" y2="1024"/>
    <line x1="1440" y1="0" x2="1440" y2="1024"/>
    <line x1="1488" y1="0" x2="1488" y2="1024"/>
    <line x1="0" y1="0" x2="1536" y2="0"/>
    <line x1="0" y1="48" x2="1536" y2="48"/>
    <line x1="0" y1="96" x2="1536" y2="96"/>
    <line x1="0" y1="144" x2="1536" y2="144"/>
    <line x1="0" y1="192" x2="1536" y2="192"/>
    <line x1="0" y1="240" x2="1536" y2="240"/>
    <line x1="0" y1="288" x2="1536" y2="288"/>
    <line x1="0" y1="336" x2="1536" y2="336"/>
    <line x1="0" y1="384" x2="1536" y2="384"/>
    <line x1="0" y1="432" x2="1536" y2="432"/>
    <line x1="0" y1="480" x2="1536" y2="480"/>
    <line x1="0" y1="528" x2="1536" y2="528"/>
    <line x1="0" y1="576" x2="1536" y2="576"/>
    <line x1="0" y1="624" x2="1536" y2="624"/>
    <line x1="0" y1="672" x2="1536" y2="672"/>
    <line x1="0" y1="720" x2="1536" y2="720"/>
    <line x1="0" y1="768" x2="1536" y2="768"/>
    <line x1="0" y1="816" x2="1536" y2="816"/>
    <line x1="0" y1="864" x2="1536" y2="864"/>
    <line x1="0" y1="912" x2="1536" y2="912"/>
    <line x1="0" y1="960" x2="1536" y2="960"/>
    <line x1="0" y1="1008" x2="1536" y2="1008"/>
  </g>
  <rect x="31" y="143" width="276" height="778" fill="none" stroke="#000000" stroke-width="1.5" stroke-dasharray="none"/>
  <text x="39" y="161" font-family="Helvetica" font-size="14" font-weight="700">SCHEMATIC g06-gpu-swap PASS 4</text>
  <text x="39" y="177" font-family="Helvetica" font-size="8">anchors: gpu-horizontal-slot1, gpu-bracket-rear, gpu-power-top-edge, cable-board-header-to-gpu, amd-alt-card...</text>
  <rect x="31" y="20" width="276" height="82" fill="none" stroke="#000000" stroke-opacity="1" stroke-width="1.5"/>
  <text x="35" y="34" font-family="Helvetica" font-size="10" font-weight="700">STEP 6</text>
  <rect x="369" y="82" width="276" height="164" fill="none" stroke="#000000" stroke-opacity="1" stroke-width="1.5"/>
  <text x="373" y="96" font-family="Helvetica" font-size="10" font-weight="700">GTX285 IN</text>
  <rect x="645" y="82" width="276" height="164" fill="none" stroke="#000000" stroke-opacity="0.4" stroke-width="0.5" stroke-dasharray="4 2"/>
  <text x="649" y="96" font-family="Helvetica" font-size="10" font-weight="700">GTX285 OUT</text>
  <rect x="952" y="82" width="276" height="164" fill="none" stroke="#000000" stroke-opacity="0.4" stroke-width="0.5" stroke-dasharray="4 2"/>
  <text x="956" y="96" font-family="Helvetica" font-size="10" font-weight="700">AMD IN</text>
  <rect x="369" y="287" width="276" height="123" fill="none" stroke="#000000" stroke-opacity="0.4" stroke-width="0.5" stroke-dasharray="4 2"/>
  <text x="373" y="301" font-family="Helvetica" font-size="10" font-weight="700">DIGITAL CABLE</text>
  <rect x="676" y="287" width="276" height="123" fill="none" stroke="#000000" stroke-opacity="0.4" stroke-width="0.5" stroke-dasharray="4 2"/>
  <text x="680" y="301" font-family="Helvetica" font-size="10" font-weight="700">KEEP OLD</text>
  <rect x="983" y="287" width="246" height="123" fill="none" stroke="#000000" stroke-opacity="1" stroke-width="1.5"/>
  <text x="987" y="301" font-family="Helvetica" font-size="10" font-weight="700">SLOT MAP</text>
  <rect x="31" y="143" width="276" height="778" fill="none" stroke="#000000" stroke-opacity="0.4" stroke-width="0.5" stroke-dasharray="4 2"/>
  <text x="35" y="157" font-family="Helvetica" font-size="10" font-weight="700">GPU SWAP</text>
  <rect x="31" y="942" width="1475" height="51" fill="none" stroke="#000000" stroke-opacity="1" stroke-width="1.5"/>
  <text x="35" y="956" font-family="Helvetica" font-size="10" font-weight="700">STEP6 GPU SWAP</text>
  <line x1="30.72" y1="942.08" x2="1505.28" y2="942.08" stroke="#000000" stroke-width="1.5"/>
  <text x="30.72" y="972.8" font-family="Helvetica" font-size="9">STEP 6 — GPU SWAP AMD — Remove GTX 285 double-wide black blower from Slot1 x16 and install blue AMD ATI </text>
  <text x="1075.1999999999998" y="972.8" font-family="Helvetica" font-size="7">PASS 4  BLACK-LINE 1.5  GHOST-40 4-2  8PX GRID  1536x1024  HELVETICA</text>
</svg>
